<?xml version="1.0" encoding="utf-8"?>
<!-- Generator: Adobe Illustrator 18.0.0, SVG Export Plug-In . SVG Version: 6.00 Build 0)  -->
<!DOCTYPE svg PUBLIC "-//W3C//DTD SVG 1.1//EN" "http://www.w3.org/Graphics/SVG/1.1/DTD/svg11.dtd">
<svg version="1.1" xmlns="http://www.w3.org/2000/svg" xmlns:xlink="http://www.w3.org/1999/xlink" x="0px" y="0px"
	 viewBox="0 0 595.3 595.3" enable-background="new 0 0 595.3 595.3" xml:space="preserve">
<g id="Capa_1">
	
		<polyline fill="none" stroke="#322D33" stroke-width="19.4888" stroke-linecap="round" stroke-linejoin="round" stroke-miterlimit="10" points="
		129,293.7 306,146.7 482.2,293.7 	"/>
	
		<polyline fill="none" stroke="#322D33" stroke-width="19.4888" stroke-linecap="round" stroke-linejoin="round" stroke-miterlimit="10" points="
		439.2,302.6 439.2,501.6 305.6,501.6 172,501.6 172,302.6 	"/>
	
		<polygon fill="none" stroke="#322D33" stroke-width="13.4114" stroke-linecap="round" stroke-linejoin="round" stroke-miterlimit="10" points="
		377.4,209.8 377.4,144.3 431.9,144.3 431.9,248 	"/>
	<path opacity="0.6" fill="#4756A2" d="M326.8,329.1c0,0.6-0.1,1.1-0.1,1.7c0.2,24.6,0.5,49.1,0.7,73.7c0.2,18.8,0.2,37.5,0.4,56.3
		c0,1.8-0.6,2.9-1.8,4c-4.5,3.7-9.5,3.3-13.7-0.1c-1.2-0.9-1.8-2.2-1.8-3.9c0-23.3,0-46.6,0-69.8c0-0.5,0-1-0.3-1.6
		c0,0.5,0,0.9,0,1.4c0,23.4-0.1,46.9-0.1,70.3c0,1.4-0.4,2.3-1.3,3.2c-3.9,4-11.4,4.2-15.3,0.4c-1-1-1.5-2.1-1.5-3.6
		c-0.1-28.8-0.2-57.6-0.3-86.4c-0.1-14.6-0.2-29.2-0.3-43.8c0-0.5-0.1-1-0.1-1.5c-0.1,0-0.3,0-0.4,0c0,0.6,0,1.2,0,1.9
		c0,16.7,0,33.5,0,50.2c0,2.9-0.8,5.4-3.1,7.1c-3.5,2.6-8.7,1.5-10.8-2.5c-0.6-1.1-0.9-2.5-0.9-3.7c0-19.4-0.1-38.9,0.1-58.3
		c0-4.3,2.3-7.8,5.1-10.7c2.2-2.4,4.5-4.3,7.6-5.2c0.5-0.2,1-0.3,1.5-0.3c12.5-0.1,25-0.4,37.4,0c4.9,0.2,8.9,3.5,11.7,8.1
		c1.6,2.6,2.2,5.5,2.2,8.7c0,19,0.2,37.9,0.2,56.9c0,1.8-0.5,3.8-1.3,5.3c-1.4,2.7-4.9,3.7-7.6,2.8c-3.2-1.1-4.9-3.6-5-7.2
		c-0.1-6.8-0.2-13.6-0.3-20.4c-0.1-10.3-0.1-20.6-0.2-30.9c0-0.6,0-1.3,0-1.9C327.2,329.2,327,329.1,326.8,329.1z"/>
	<path opacity="0.6" fill="#4756A2" d="M309.2,305.2c-8.9,0-16.1-8-16.1-17.8c0-9.8,7.2-17.8,16.1-17.8c8.9,0,16.2,8,16.1,17.8
		C325.4,297.3,318.1,305.2,309.2,305.2z"/>
	<circle opacity="0.6" fill="#53B583" cx="85.8" cy="413.4" r="26.8"/>
	
		<path fill="none" stroke="#322D33" stroke-width="6.0903" stroke-linecap="round" stroke-linejoin="round" stroke-miterlimit="10" d="
		M325.3,329.1c0,0.6-0.1,1.1-0.1,1.7c0.3,24.6,0.6,49.1,0.8,73.7c0.2,18.7,0.2,37.5,0.4,56.2c0,1.8-0.6,2.9-2,4
		c-4.9,3.7-10.5,3.3-15.1-0.1c-1.3-0.9-2-2.1-2-3.9c0-23.3,0-46.5,0-69.8c0-0.5,0-1-0.3-1.5c0,0.5,0,0.9,0,1.4
		c0,23.4-0.1,46.8-0.1,70.3c0,1.4-0.4,2.3-1.4,3.2c-4.3,4-12.5,4.2-16.8,0.4c-1.1-1-1.7-2.1-1.7-3.6c-0.1-28.8-0.2-57.5-0.4-86.3
		c-0.1-14.6-0.2-29.2-0.3-43.8c0-0.5-0.1-1-0.1-1.5c-0.2,0-0.3,0-0.5,0c0,0.6,0,1.2,0,1.9c0,16.7,0,33.4,0,50.2
		c0,2.9-0.8,5.4-3.4,7.1c-3.8,2.6-9.6,1.5-11.9-2.5c-0.6-1.1-1-2.5-1-3.7c0-19.4-0.1-38.8,0.1-58.3c0-4.3,2.6-7.8,5.6-10.7
		c2.4-2.4,4.9-4.3,8.3-5.2c0.5-0.2,1.1-0.3,1.7-0.3c13.7-0.1,27.4-0.4,41.1,0c5.4,0.2,9.8,3.5,12.9,8.1c1.7,2.6,2.4,5.5,2.4,8.6
		c0,19,0.2,37.9,0.2,56.9c0,1.8-0.5,3.7-1.4,5.3c-1.5,2.7-5.4,3.7-8.4,2.8c-3.5-1.1-5.4-3.6-5.5-7.2c-0.1-6.8-0.2-13.6-0.3-20.4
		c-0.1-10.3-0.1-20.6-0.2-30.8c0-0.6,0-1.3,0-1.9C325.7,329.1,325.5,329.1,325.3,329.1z"/>
	
		<path fill="none" stroke="#322D33" stroke-width="6.0903" stroke-linecap="round" stroke-linejoin="round" stroke-miterlimit="10" d="
		M306,305.2c-9.8,0-17.7-8-17.7-17.8c0-9.8,8-17.7,17.7-17.7c9.8,0,17.8,8,17.7,17.8C323.8,297.3,315.8,305.2,306,305.2z"/>
	<g>
		<path fill="#322D33" d="M121,419.4c-1.3-0.3-2.7,0.4-3,1.7l-0.1,0.2l-5.7-1.5c0.4-1.9,0.5-3.9,0.5-5.9c0-2-0.2-4-0.5-5.9l5.7-1.5
			l0.1,0.2c0.4,1.4,1.8,2.1,3,1.7c1.3-0.4,2.1-1.7,1.7-3l-1.4-5.2c-0.4-1.3-1.7-2.1-3-1.7c-1.3,0.4-2.1,1.7-1.7,3l0.1,0.2l-5.7,1.5
			c-1.3-3.8-3.4-7.2-5.9-10.2l4.2-4.2l0.2,0.2c1,1,2.5,1,3.5,0c1-1,1-2.5,0-3.5l-3.8-3.8c-1-1-2.5-1-3.5,0c-1,1-1,2.5,0,3.5l0.2,0.2
			l-4.2,4.2c-3-2.6-6.4-4.6-10.2-5.9l1.5-5.7l0.2,0.1c1.4,0.4,2.7-0.5,3-1.7c0.4-1.3-0.4-2.7-1.7-3l-5.2-1.4c-1.3-0.4-2.7,0.4-3,1.7
			c-0.4,1.3,0.4,2.7,1.7,3l0.2,0.1l-1.5,5.7c-1.9-0.4-3.9-0.5-5.9-0.5s-4,0.2-5.9,0.5l-1.5-5.7l0.2-0.1c1.3-0.4,2.1-1.7,1.7-3
			c-0.4-1.3-1.7-2.1-3-1.7l-5.2,1.4c-1.3,0.4-2.1,1.7-1.7,3c0.3,1.3,1.7,2.1,3,1.7l0.2-0.1l1.5,5.7c-3.8,1.3-7.2,3.4-10.2,5.9
			l-4.2-4.2l0.2-0.2c1-1,1-2.5,0-3.5c-1-1-2.5-1-3.5,0l-3.8,3.8c-1,1-1,2.5,0,3.5c1,1,2.5,1,3.5,0l0.2-0.2l4.2,4.2
			c-2.6,3-4.6,6.4-5.9,10.2l-5.7-1.5l0.1-0.2c0.4-1.3-0.4-2.7-1.7-3c-1.3-0.4-2.7,0.4-3,1.7l-1.4,5.2c-0.4,1.3,0.4,2.7,1.7,3
			c1.3,0.3,2.7-0.4,3-1.7l0.1-0.2l5.7,1.5c-0.4,1.9-0.5,3.9-0.5,5.9c0,2,0.2,4,0.5,5.9l-5.7,1.5l-0.1-0.2c-0.4-1.4-1.8-2.1-3-1.7
			c-1.3,0.4-2.1,1.7-1.7,3l1.4,5.2c0.4,1.3,1.7,2.1,3,1.7c1.3-0.4,2.1-1.7,1.7-3l-0.1-0.2l5.7-1.5c1.3,3.8,3.4,7.2,5.9,10.2
			l-4.2,4.2l-0.2-0.2c-1-1-2.5-1-3.5,0c-1,1-1,2.5,0,3.5l3.8,3.8c1,1,2.5,1,3.5,0c1-1,1-2.5,0-3.5l-0.2-0.2l4.2-4.2
			c3,2.6,6.4,4.6,10.2,5.9l-1.5,5.7l-0.2-0.1c-1.4-0.4-2.7,0.5-3,1.7c-0.4,1.3,0.4,2.7,1.7,3l5.2,1.4c1.3,0.4,2.7-0.4,3-1.7
			c0.4-1.3-0.4-2.7-1.7-3l-0.2-0.1l1.5-5.7c1.9,0.4,3.9,0.5,5.9,0.5s4-0.2,5.9-0.5l1.5,5.7l-0.2,0.1c-1.3,0.4-2.1,1.7-1.7,3
			c0.4,1.3,1.7,2.1,3,1.7l5.2-1.4c1.3-0.4,2.1-1.7,1.7-3c-0.3-1.3-1.7-2.1-3-1.7l-0.2,0.1l-1.5-5.7c3.8-1.3,7.2-3.4,10.2-5.9
			l4.2,4.2l-0.2,0.2c-1,1-1,2.5,0,3.5c1,1,2.5,1,3.5,0l3.8-3.8c1-1,1-2.5,0-3.5c-1-1-2.5-1-3.5,0l-0.2,0.2l-4.2-4.2
			c2.6-3,4.6-6.4,5.9-10.2l5.7,1.5l-0.1,0.2c-0.4,1.3,0.4,2.7,1.7,3c1.3,0.4,2.7-0.4,3-1.7l1.4-5.2
			C123.1,421.1,122.4,419.8,121,419.4L121,419.4z M80.6,441.1c-15,0-27.2-12.2-27.2-27.2c0-15,12.2-27.2,27.2-27.2
			s27.2,12.2,27.2,27.2C107.8,428.9,95.6,441.1,80.6,441.1z"/>
		<circle fill="#322D33" cx="80.6" cy="395.4" r="2.5"/>
		<circle fill="#322D33" cx="80.6" cy="432.5" r="2.5"/>
		<circle fill="#322D33" cx="75.3" cy="419.2" r="2.5"/>
		<circle fill="#322D33" cx="85.9" cy="419.2" r="2.5"/>
		<circle fill="#322D33" cx="85.9" cy="408.6" r="2.5"/>
		<circle fill="#322D33" cx="75.3" cy="408.6" r="2.5"/>
		<circle fill="#322D33" cx="99.2" cy="413.9" r="2.5"/>
		<circle fill="#322D33" cx="62.1" cy="413.9" r="2.5"/>
		<circle fill="#322D33" cx="93.8" cy="400.8" r="2.5"/>
		<circle fill="#322D33" cx="67.5" cy="427" r="2.5"/>
		<circle fill="#322D33" cx="93.8" cy="427" r="2.5"/>
		<circle fill="#322D33" cx="67.5" cy="400.8" r="2.5"/>
	</g>
	<circle opacity="0.6" fill="#53B583" cx="544.9" cy="458.7" r="13.4"/>
	<g>
		<path fill="#322D33" d="M562.5,461.7c-0.6-0.2-1.3,0.2-1.5,0.9l0,0.1l-2.9-0.8c0.2-1,0.3-1.9,0.3-3c0-1-0.1-2-0.3-3l2.9-0.8l0,0.1
			c0.2,0.7,0.9,1,1.5,0.9c0.7-0.2,1.1-0.9,0.9-1.5l-0.7-2.6c-0.2-0.7-0.9-1.1-1.5-0.9c-0.7,0.2-1.1,0.9-0.9,1.5l0,0.1l-2.9,0.8
			c-0.7-1.9-1.7-3.6-3-5.1l2.1-2.1l0.1,0.1c0.5,0.5,1.3,0.5,1.8,0c0.5-0.5,0.5-1.3,0-1.8l-1.9-1.9c-0.5-0.5-1.3-0.5-1.8,0
			c-0.5,0.5-0.5,1.3,0,1.8l0.1,0.1l-2.1,2.1c-1.5-1.3-3.2-2.3-5.1-3l0.8-2.9l0.1,0c0.7,0.2,1.3-0.2,1.5-0.9c0.2-0.7-0.2-1.3-0.9-1.5
			l-2.6-0.7c-0.7-0.2-1.3,0.2-1.5,0.9c-0.2,0.7,0.2,1.3,0.9,1.5l0.1,0l-0.8,2.9c-1-0.2-1.9-0.3-3-0.3c-1,0-2,0.1-3,0.3l-0.8-2.9
			l0.1,0c0.7-0.2,1.1-0.9,0.9-1.5c-0.2-0.7-0.9-1.1-1.5-0.9l-2.6,0.7c-0.7,0.2-1.1,0.9-0.9,1.5c0.2,0.6,0.8,1.1,1.5,0.9l0.1,0
			l0.8,2.9c-1.9,0.7-3.6,1.7-5.1,3l-2.1-2.1l0.1-0.1c0.5-0.5,0.5-1.3,0-1.8c-0.5-0.5-1.3-0.5-1.8,0l-1.9,1.9c-0.5,0.5-0.5,1.3,0,1.8
			c0.5,0.5,1.3,0.5,1.8,0l0.1-0.1l2.1,2.1c-1.3,1.5-2.3,3.2-3,5.1l-2.9-0.8l0-0.1c0.2-0.7-0.2-1.3-0.9-1.5c-0.7-0.2-1.3,0.2-1.5,0.9
			l-0.7,2.6c-0.2,0.7,0.2,1.3,0.9,1.5c0.6,0.2,1.3-0.2,1.5-0.9l0-0.1l2.9,0.8c-0.2,1-0.3,1.9-0.3,3c0,1,0.1,2,0.3,3l-2.9,0.8l0-0.1
			c-0.2-0.7-0.9-1-1.5-0.9c-0.7,0.2-1.1,0.9-0.9,1.5l0.7,2.6c0.2,0.7,0.9,1.1,1.5,0.9c0.7-0.2,1.1-0.9,0.9-1.5l0-0.1l2.9-0.8
			c0.7,1.9,1.7,3.6,3,5.1l-2.1,2.1l-0.1-0.1c-0.5-0.5-1.3-0.5-1.8,0c-0.5,0.5-0.5,1.3,0,1.8l1.9,1.9c0.5,0.5,1.3,0.5,1.8,0
			c0.5-0.5,0.5-1.3,0-1.8l-0.1-0.1l2.1-2.1c1.5,1.3,3.2,2.3,5.1,3l-0.8,2.9l-0.1,0c-0.7-0.2-1.3,0.2-1.5,0.9
			c-0.2,0.7,0.2,1.3,0.9,1.5l2.6,0.7c0.7,0.2,1.3-0.2,1.5-0.9c0.2-0.7-0.2-1.3-0.9-1.5l-0.1,0l0.8-2.9c1,0.2,1.9,0.3,3,0.3
			c1,0,2-0.1,3-0.3l0.8,2.9l-0.1,0c-0.7,0.2-1.1,0.9-0.9,1.5c0.2,0.7,0.9,1.1,1.5,0.9l2.6-0.7c0.7-0.2,1.1-0.9,0.9-1.5
			c-0.2-0.6-0.8-1.1-1.5-0.9l-0.1,0l-0.8-2.9c1.9-0.7,3.6-1.7,5.1-3l2.1,2.1l-0.1,0.1c-0.5,0.5-0.5,1.3,0,1.8c0.5,0.5,1.3,0.5,1.8,0
			l1.9-1.9c0.5-0.5,0.5-1.3,0-1.8c-0.5-0.5-1.3-0.5-1.8,0l-0.1,0.1l-2.1-2.1c1.3-1.5,2.3-3.2,3-5.1l2.9,0.8l0,0.1
			c-0.2,0.7,0.2,1.3,0.9,1.5c0.7,0.2,1.3-0.2,1.5-0.9l0.7-2.6C563.6,462.6,563.2,461.9,562.5,461.7L562.5,461.7z M542.3,472.6
			c-7.5,0-13.6-6.1-13.6-13.6c0-7.5,6.1-13.6,13.6-13.6c7.5,0,13.6,6.1,13.6,13.6S549.8,472.6,542.3,472.6z"/>
		<circle fill="#322D33" cx="542.3" cy="449.7" r="1.2"/>
		<circle fill="#322D33" cx="542.3" cy="468.3" r="1.2"/>
		<circle fill="#322D33" cx="539.6" cy="461.6" r="1.2"/>
		<circle fill="#322D33" cx="545" cy="461.6" r="1.2"/>
		<circle fill="#322D33" cx="545" cy="456.3" r="1.2"/>
		<circle fill="#322D33" cx="539.6" cy="456.3" r="1.2"/>
		<circle fill="#322D33" cx="551.6" cy="459" r="1.2"/>
		<circle fill="#322D33" cx="533" cy="459" r="1.2"/>
		<circle fill="#322D33" cx="548.9" cy="452.4" r="1.2"/>
		<circle fill="#322D33" cx="535.7" cy="465.6" r="1.2"/>
		<circle fill="#322D33" cx="548.9" cy="465.6" r="1.2"/>
		<circle fill="#322D33" cx="535.7" cy="452.4" r="1.2"/>
	</g>
	<circle opacity="0.6" fill="#53B583" cx="523.3" cy="146.1" r="32.1"/>
	<g>
		<path fill="#322D33" d="M565.5,153.2c-1.5-0.4-3.2,0.5-3.6,2.1l-0.1,0.3l-6.8-1.8c0.4-2.3,0.7-4.6,0.7-7.1c0-2.4-0.2-4.8-0.7-7.1
			l6.8-1.8l0.1,0.3c0.4,1.6,2.1,2.5,3.6,2.1c1.6-0.4,2.5-2,2.1-3.6l-1.7-6.2c-0.4-1.6-2-2.5-3.6-2.1c-1.6,0.4-2.5,2-2.1,3.6l0.1,0.3
			l-6.8,1.8c-1.6-4.5-4-8.6-7.1-12.2l5-5l0.2,0.2c1.2,1.2,3,1.2,4.2,0c1.2-1.2,1.2-3,0-4.2l-4.6-4.6c-1.2-1.2-3-1.2-4.2,0
			c-1.2,1.2-1.2,3,0,4.2l0.2,0.2l-5,5c-3.6-3.1-7.7-5.5-12.2-7.1l1.8-6.8l0.3,0.1c1.6,0.4,3.2-0.6,3.6-2.1c0.4-1.6-0.5-3.2-2.1-3.6
			l-6.2-1.7c-1.6-0.4-3.2,0.5-3.6,2.1c-0.4,1.6,0.5,3.2,2.1,3.6l0.3,0.1l-1.8,6.8c-2.3-0.4-4.6-0.7-7.1-0.7s-4.8,0.2-7.1,0.7
			l-1.8-6.8l0.3-0.1c1.6-0.4,2.5-2,2.1-3.6c-0.4-1.6-2-2.5-3.6-2.1l-6.2,1.7c-1.6,0.4-2.5,2-2.1,3.6c0.4,1.5,2,2.5,3.6,2.1l0.3-0.1
			l1.8,6.8c-4.5,1.6-8.6,4-12.2,7.1l-5-5l0.2-0.2c1.2-1.2,1.2-3,0-4.2c-1.2-1.2-3-1.2-4.2,0l-4.6,4.6c-1.2,1.2-1.2,3,0,4.2
			c1.2,1.2,3,1.2,4.2,0l0.2-0.2l5,5c-3.1,3.6-5.5,7.7-7.1,12.2l-6.8-1.8l0.1-0.3c0.4-1.6-0.5-3.2-2.1-3.6c-1.6-0.4-3.2,0.5-3.6,2.1
			l-1.7,6.2c-0.4,1.6,0.5,3.2,2.1,3.6c1.5,0.4,3.2-0.5,3.6-2.1l0.1-0.3l6.8,1.8c-0.4,2.3-0.7,4.6-0.7,7.1c0,2.4,0.2,4.8,0.7,7.1
			l-6.8,1.8l-0.1-0.3c-0.4-1.6-2.1-2.5-3.6-2.1c-1.6,0.4-2.5,2-2.1,3.6l1.7,6.2c0.4,1.6,2,2.5,3.6,2.1c1.6-0.4,2.5-2,2.1-3.6
			l-0.1-0.3l6.8-1.8c1.6,4.5,4,8.6,7.1,12.2l-5,5l-0.2-0.2c-1.2-1.2-3-1.2-4.2,0c-1.2,1.2-1.2,3,0,4.2l4.6,4.6c1.2,1.2,3,1.2,4.2,0
			c1.2-1.2,1.2-3,0-4.2l-0.2-0.2l5-5c3.6,3.1,7.7,5.5,12.2,7.1l-1.8,6.8l-0.3-0.1c-1.6-0.4-3.2,0.6-3.6,2.1
			c-0.4,1.6,0.5,3.2,2.1,3.6l6.2,1.7c1.6,0.4,3.2-0.5,3.6-2.1c0.4-1.6-0.5-3.2-2.1-3.6l-0.3-0.1l1.8-6.8c2.3,0.4,4.6,0.7,7.1,0.7
			s4.8-0.2,7.1-0.7l1.8,6.8l-0.3,0.1c-1.6,0.4-2.5,2-2.1,3.6c0.4,1.6,2,2.5,3.6,2.1l6.2-1.7c1.6-0.4,2.5-2,2.1-3.6
			c-0.4-1.5-2-2.5-3.6-2.1l-0.3,0.1l-1.8-6.8c4.5-1.6,8.6-4,12.2-7.1l5,5l-0.2,0.2c-1.2,1.2-1.2,3,0,4.2c1.2,1.2,3,1.2,4.2,0
			l4.6-4.6c1.2-1.2,1.2-3,0-4.2c-1.2-1.2-3-1.2-4.2,0l-0.2,0.2l-5-5c3.1-3.6,5.5-7.7,7.1-12.2l6.8,1.8l-0.1,0.3
			c-0.4,1.6,0.5,3.2,2.1,3.6c1.6,0.4,3.2-0.5,3.6-2.1l1.7-6.2C568,155.3,567,153.7,565.5,153.2L565.5,153.2z M517.2,179.2
			c-17.9,0-32.5-14.6-32.5-32.5s14.6-32.5,32.5-32.5s32.5,14.6,32.5,32.5C549.7,164.6,535.1,179.2,517.2,179.2z"/>
		<circle fill="#322D33" cx="517.2" cy="124.5" r="3"/>
		<circle fill="#322D33" cx="517.2" cy="168.9" r="3"/>
		<circle fill="#322D33" cx="510.8" cy="153" r="3"/>
		<circle fill="#322D33" cx="523.5" cy="153" r="3"/>
		<circle fill="#322D33" cx="523.5" cy="140.4" r="3"/>
		<circle fill="#322D33" cx="510.8" cy="140.4" r="3"/>
		<circle fill="#322D33" cx="539.3" cy="146.7" r="3"/>
		<circle fill="#322D33" cx="495" cy="146.7" r="3"/>
		<circle fill="#322D33" cx="532.8" cy="131" r="3"/>
		<circle fill="#322D33" cx="501.5" cy="162.4" r="3"/>
		<circle fill="#322D33" cx="532.8" cy="162.4" r="3"/>
		<circle fill="#322D33" cx="501.5" cy="131" r="3"/>
	</g>
	<g>
		<path fill="#322D33" d="M144.9,208c-0.9-0.2-1.9,0.3-2.1,1.2l0,0.2l-4.1-1.1c0.3-1.4,0.4-2.7,0.4-4.2c0-1.4-0.1-2.8-0.4-4.2
			l4.1-1.1l0,0.2c0.3,1,1.2,1.5,2.1,1.2c0.9-0.3,1.5-1.2,1.2-2.1l-1-3.7c-0.3-0.9-1.2-1.5-2.1-1.2c-0.9,0.3-1.5,1.2-1.2,2.1l0,0.2
			l-4.1,1.1c-0.9-2.7-2.4-5.1-4.2-7.2l3-3l0.1,0.1c0.7,0.7,1.8,0.7,2.5,0c0.7-0.7,0.7-1.8,0-2.5l-2.7-2.7c-0.7-0.7-1.8-0.7-2.5,0
			s-0.7,1.8,0,2.5l0.1,0.1l-3,3c-2.1-1.8-4.6-3.2-7.2-4.2l1.1-4.1l0.2,0c1,0.3,1.9-0.3,2.1-1.2c0.3-0.9-0.3-1.9-1.2-2.1l-3.7-1
			c-0.9-0.3-1.9,0.3-2.1,1.2c-0.3,0.9,0.3,1.9,1.2,2.1l0.2,0l-1.1,4.1c-1.4-0.3-2.7-0.4-4.2-0.4s-2.8,0.1-4.2,0.4l-1.1-4.1l0.2,0
			c0.9-0.3,1.5-1.2,1.2-2.1c-0.3-0.9-1.2-1.5-2.1-1.2l-3.7,1c-0.9,0.3-1.5,1.2-1.2,2.1c0.2,0.9,1.2,1.5,2.1,1.2l0.2,0l1.1,4.1
			c-2.7,0.9-5.1,2.4-7.2,4.2l-3-3l0.1-0.1c0.7-0.7,0.7-1.8,0-2.5c-0.7-0.7-1.8-0.7-2.5,0l-2.7,2.7c-0.7,0.7-0.7,1.8,0,2.5
			c0.7,0.7,1.8,0.7,2.5,0l0.1-0.1l3,3c-1.8,2.1-3.2,4.6-4.2,7.2l-4.1-1.1l0-0.2c0.3-0.9-0.3-1.9-1.2-2.1c-0.9-0.3-1.9,0.3-2.1,1.2
			l-1,3.7c-0.3,0.9,0.3,1.9,1.2,2.1c0.9,0.2,1.9-0.3,2.1-1.2l0-0.2l4.1,1.1c-0.3,1.4-0.4,2.8-0.4,4.2c0,1.4,0.1,2.8,0.4,4.2
			l-4.1,1.1l0-0.2c-0.3-1-1.2-1.5-2.1-1.2c-0.9,0.3-1.5,1.2-1.2,2.1l1,3.7c0.3,0.9,1.2,1.5,2.1,1.2c0.9-0.3,1.5-1.2,1.2-2.1l0-0.2
			l4.1-1.1c0.9,2.7,2.4,5.1,4.2,7.2l-3,3l-0.1-0.1c-0.7-0.7-1.8-0.7-2.5,0c-0.7,0.7-0.7,1.8,0,2.5l2.7,2.7c0.7,0.7,1.8,0.7,2.5,0
			s0.7-1.8,0-2.5l-0.1-0.1l3-3c2.1,1.8,4.6,3.2,7.2,4.2l-1.1,4.1l-0.2,0c-1-0.3-1.9,0.3-2.1,1.2c-0.3,0.9,0.3,1.9,1.2,2.1l3.7,1
			c0.9,0.3,1.9-0.3,2.1-1.2c0.3-0.9-0.3-1.9-1.2-2.1l-0.2,0l1.1-4.1c1.4,0.3,2.7,0.4,4.2,0.4c1.4,0,2.8-0.1,4.2-0.4l1.1,4.1l-0.2,0
			c-0.9,0.3-1.5,1.2-1.2,2.1c0.3,0.9,1.2,1.5,2.1,1.2l3.7-1c0.9-0.3,1.5-1.2,1.2-2.1c-0.2-0.9-1.2-1.5-2.1-1.2l-0.2,0l-1.1-4.1
			c2.7-0.9,5.1-2.4,7.2-4.2l3,3l-0.1,0.1c-0.7,0.7-0.7,1.8,0,2.5c0.7,0.7,1.8,0.7,2.5,0l2.7-2.7c0.7-0.7,0.7-1.8,0-2.5
			c-0.7-0.7-1.8-0.7-2.5,0l-0.1,0.1l-3-3c1.8-2.1,3.2-4.6,4.2-7.2l4.1,1.1l0,0.2c-0.3,0.9,0.3,1.9,1.2,2.1c0.9,0.3,1.9-0.3,2.1-1.2
			l1-3.7C146.4,209.2,145.8,208.2,144.9,208L144.9,208z M116.3,223.3c-10.6,0-19.2-8.6-19.2-19.2c0-10.6,8.6-19.2,19.2-19.2
			s19.2,8.6,19.2,19.2C135.5,214.7,126.9,223.3,116.3,223.3z"/>
		<circle fill="#322D33" cx="116.3" cy="190.9" r="1.8"/>
		<circle fill="#322D33" cx="116.3" cy="217.2" r="1.8"/>
		<circle fill="#322D33" cx="112.5" cy="207.8" r="1.8"/>
		<circle fill="#322D33" cx="120" cy="207.8" r="1.8"/>
		<circle fill="#322D33" cx="120" cy="200.3" r="1.8"/>
		<circle fill="#322D33" cx="112.5" cy="200.3" r="1.8"/>
		<circle fill="#322D33" cx="129.4" cy="204.1" r="1.8"/>
		<circle fill="#322D33" cx="103.2" cy="204.1" r="1.8"/>
		<circle fill="#322D33" cx="125.6" cy="194.8" r="1.8"/>
		<circle fill="#322D33" cx="107" cy="213.4" r="1.8"/>
		<circle fill="#322D33" cx="125.6" cy="213.4" r="1.8"/>
		<circle fill="#322D33" cx="107" cy="194.8" r="1.8"/>
	</g>
	<g>
		<path fill="#322D33" d="M523.6,360.9c-0.7-0.2-1.5,0.2-1.7,1l0,0.1l-3.3-0.9c0.2-1.1,0.3-2.2,0.3-3.4c0-1.2-0.1-2.3-0.3-3.4
			l3.3-0.9l0,0.1c0.2,0.8,1,1.2,1.7,1c0.8-0.2,1.2-1,1-1.7l-0.8-3c-0.2-0.8-1-1.2-1.7-1c-0.8,0.2-1.2,1-1,1.7l0,0.1l-3.3,0.9
			c-0.8-2.2-1.9-4.2-3.4-5.9l2.4-2.4l0.1,0.1c0.6,0.6,1.5,0.6,2,0c0.6-0.6,0.6-1.5,0-2l-2.2-2.2c-0.6-0.6-1.5-0.6-2,0s-0.6,1.5,0,2
			l0.1,0.1l-2.4,2.4c-1.7-1.5-3.7-2.6-5.9-3.4l0.9-3.3l0.1,0c0.8,0.2,1.5-0.3,1.7-1c0.2-0.8-0.2-1.5-1-1.7l-3-0.8
			c-0.8-0.2-1.5,0.2-1.7,1c-0.2,0.8,0.2,1.5,1,1.7l0.1,0l-0.9,3.3c-1.1-0.2-2.2-0.3-3.4-0.3s-2.3,0.1-3.4,0.3l-0.9-3.3l0.1,0
			c0.8-0.2,1.2-1,1-1.7c-0.2-0.8-1-1.2-1.7-1l-3,0.8c-0.8,0.2-1.2,1-1,1.7c0.2,0.7,1,1.2,1.7,1l0.1,0l0.9,3.3
			c-2.2,0.8-4.2,1.9-5.9,3.4l-2.4-2.4l0.1-0.1c0.6-0.6,0.6-1.5,0-2c-0.6-0.6-1.5-0.6-2,0l-2.2,2.2c-0.6,0.6-0.6,1.5,0,2
			c0.6,0.6,1.5,0.6,2,0l0.1-0.1l2.4,2.4c-1.5,1.7-2.6,3.7-3.4,5.9l-3.3-0.9l0-0.1c0.2-0.8-0.2-1.5-1-1.7c-0.8-0.2-1.5,0.2-1.7,1
			l-0.8,3c-0.2,0.8,0.2,1.5,1,1.7c0.7,0.2,1.5-0.2,1.7-1l0-0.1l3.3,0.9c-0.2,1.1-0.3,2.2-0.3,3.4c0,1.2,0.1,2.3,0.3,3.4l-3.3,0.9
			l0-0.1c-0.2-0.8-1-1.2-1.7-1c-0.8,0.2-1.2,1-1,1.7l0.8,3c0.2,0.8,1,1.2,1.7,1c0.8-0.2,1.2-1,1-1.7l0-0.1l3.3-0.9
			c0.8,2.2,1.9,4.2,3.4,5.9l-2.4,2.4l-0.1-0.1c-0.6-0.6-1.5-0.6-2,0c-0.6,0.6-0.6,1.5,0,2l2.2,2.2c0.6,0.6,1.5,0.6,2,0
			c0.6-0.6,0.6-1.5,0-2l-0.1-0.1l2.4-2.4c1.7,1.5,3.7,2.6,5.9,3.4l-0.9,3.3l-0.1,0c-0.8-0.2-1.5,0.3-1.7,1c-0.2,0.8,0.2,1.5,1,1.7
			l3,0.8c0.8,0.2,1.5-0.2,1.7-1c0.2-0.8-0.2-1.5-1-1.7l-0.1,0l0.9-3.3c1.1,0.2,2.2,0.3,3.4,0.3c1.2,0,2.3-0.1,3.4-0.3l0.9,3.3
			l-0.1,0c-0.8,0.2-1.2,1-1,1.7c0.2,0.8,1,1.2,1.7,1l3-0.8c0.8-0.2,1.2-1,1-1.7c-0.2-0.7-1-1.2-1.7-1l-0.1,0l-0.9-3.3
			c2.2-0.8,4.2-1.9,5.9-3.4l2.4,2.4l-0.1,0.1c-0.6,0.6-0.6,1.5,0,2c0.6,0.6,1.5,0.6,2,0l2.2-2.2c0.6-0.6,0.6-1.5,0-2
			c-0.6-0.6-1.5-0.6-2,0l-0.1,0.1l-2.4-2.4c1.5-1.7,2.6-3.7,3.4-5.9l3.3,0.9l0,0.1c-0.2,0.8,0.2,1.5,1,1.7c0.8,0.2,1.5-0.2,1.7-1
			l0.8-3C524.8,361.9,524.4,361.2,523.6,360.9L523.6,360.9z M500.4,373.4c-8.6,0-15.6-7-15.6-15.6s7-15.6,15.6-15.6
			s15.6,7,15.6,15.6S509,373.4,500.4,373.4z"/>
		<circle fill="#322D33" cx="500.4" cy="347.2" r="1.4"/>
		<circle fill="#322D33" cx="500.4" cy="368.5" r="1.4"/>
		<circle fill="#322D33" cx="497.4" cy="360.9" r="1.4"/>
		<circle fill="#322D33" cx="503.5" cy="360.9" r="1.4"/>
		<circle fill="#322D33" cx="503.5" cy="354.8" r="1.4"/>
		<circle fill="#322D33" cx="497.4" cy="354.8" r="1.4"/>
		<circle fill="#322D33" cx="511.1" cy="357.8" r="1.4"/>
		<circle fill="#322D33" cx="489.8" cy="357.8" r="1.4"/>
		<circle fill="#322D33" cx="508" cy="350.3" r="1.4"/>
		<circle fill="#322D33" cx="492.9" cy="365.3" r="1.4"/>
		<circle fill="#322D33" cx="508" cy="365.3" r="1.4"/>
		<circle fill="#322D33" cx="492.9" cy="350.3" r="1.4"/>
	</g>
</g>
<g id="Capa_2">
</g>
</svg>
